<svg version="1.1" viewBox="0.0 0.0 600.0 371.0" fill="none" stroke="none" stroke-linecap="square" stroke-miterlimit="10" width="600" height="371" xmlns:xlink="http://www.w3.org/1999/xlink" xmlns="http://www.w3.org/2000/svg"><path fill="#ffffff" fill-opacity="0.0" d="M0 0L600.0 0L600.0 371.0L0 371.0L0 0Z" fill-rule="nonzero"/><path fill="#98a494" d="M254.48509 187.35658C264.3735 176.44943 281.5455 169.84117 300.0 169.84117L300.0 190.05617C281.5455 190.05617 264.3735 196.66443 254.48509 207.5716Z" fill-rule="nonzero"/><path fill="#d9ead3" d="M186.21274 157.02773C210.93379 129.75983 253.86374 113.23917 300.0 113.23917L300.0 169.84117C281.5455 169.84117 264.3735 176.44943 254.48509 187.35658Z" fill-rule="nonzero"/><path fill="#678958" d="M434.76666 227.79083C434.76666 279.89154 374.42957 322.1275 300.0 322.1275C225.57042 322.1275 165.23334 279.89154 165.23334 227.79083L165.23334 207.57584C165.23334 259.67654 225.57042 301.9125 300.0 301.9125C374.42957 301.9125 434.76666 259.67654 434.76666 207.57584Z" fill-rule="nonzero"/><path fill="#678958" d="M300.0 169.84117C329.77182 169.84117 353.90668 186.73555 353.90668 207.57584L353.90668 227.79083C353.90668 206.95055 329.77182 190.05617 300.0 190.05617Z" fill-rule="nonzero"/><path fill="#678958" d="M246.09334 207.57584C246.09334 200.41525 249.0039 193.40247 254.48509 187.35658L254.48509 207.5716C249.0039 213.61746 246.09334 220.63025 246.09334 227.79083Z" fill-rule="nonzero"/><path fill="#93c47d" d="M300.0 113.23917C361.52127 113.23917 415.233 142.40334 430.5327 184.11526C445.83243 225.82718 418.83582 269.497 364.92435 290.24368C311.01285 310.99036 243.87352 303.54666 201.75932 272.15372C159.64513 240.76077 153.248 193.3886 186.21274 157.02773L254.48509 187.35658C241.2992 201.90094 243.85805 220.84981 260.70374 233.407C277.5494 245.96417 304.40515 248.94164 325.96973 240.64297C347.53433 232.34431 358.33298 214.87637 352.2131 198.1916C346.0932 181.50684 324.6085 169.84117 300.0 169.84117Z" fill-rule="nonzero"/><path fill="#000000" d="M26.378124 124.541374L24.940624 124.541374L20.8 116.728874L20.8 124.541374L19.721874 124.541374L19.721874 115.822624L21.51875 115.822624L25.3 122.947624L25.3 115.822624L26.378124 115.822624L26.378124 124.541374ZM34.20625 121.27575Q34.20625 122.8695 33.378124 123.807Q32.565624 124.728874 31.190624 124.728874Q29.8 124.728874 28.9875 123.807Q28.175 122.8695 28.175 121.27575Q28.175 119.666374 28.9875 118.7445Q29.8 117.807 31.190624 117.807Q32.565624 117.807 33.378124 118.7445Q34.20625 119.666374 34.20625 121.27575ZM33.08125 121.27575Q33.08125 119.9945 32.58125 119.385124Q32.08125 118.760124 31.190624 118.760124Q30.3 118.760124 29.8 119.385124Q29.315624 119.9945 29.315624 121.27575Q29.315624 122.4945 29.8 123.135124Q30.3 123.77575 31.190624 123.77575Q32.08125 123.77575 32.58125 123.15075Q33.08125 122.510124 33.08125 121.27575ZM40.034374 124.478874Q39.721874 124.572624 39.346874 124.6195Q38.9875 124.666374 38.70625 124.666374Q37.70625 124.666374 37.175 124.135124Q36.659374 123.58825 36.659374 122.40075L36.659374 118.916374L35.909374 118.916374L35.909374 117.9945L36.659374 117.9945L36.659374 116.1195L37.753124 116.1195L37.753124 117.9945L40.034374 117.9945L40.034374 118.916374L37.753124 118.916374L37.753124 121.90075Q37.753124 122.416374 37.76875 122.71325Q37.8 122.9945 37.940624 123.2445Q38.08125 123.478874 38.3 123.58825Q38.534374 123.697624 38.9875 123.697624Q39.253124 123.697624 39.55 123.6195Q39.846874 123.541374 39.971874 123.4945L40.034374 123.4945L40.034374 124.478874ZM52.596874 124.541374L51.3625 124.541374L50.503124 122.103874L46.7375 122.103874L45.878124 124.541374L44.70625 124.541374L47.878124 115.822624L49.425 115.822624L52.596874 124.541374ZM50.159374 121.1195L48.628124 116.822624L47.08125 121.1195L50.159374 121.1195ZM57.159374 116.4945L57.096874 116.4945Q56.909374 116.432 56.6125 116.385124Q56.33125 116.322624 56.1125 116.322624Q55.39375 116.322624 55.065624 116.635124Q54.753124 116.947624 54.753124 117.77575L54.753124 117.9945L56.753124 117.9945L56.753124 118.916374L54.8 118.916374L54.8 124.541374L53.690624 124.541374L53.690624 118.916374L52.95625 118.916374L52.95625 117.9945L53.690624 117.9945L53.690624 117.77575Q53.690624 116.6195 54.26875 115.9945Q54.846874 115.3695 55.95625 115.3695Q56.315624 115.3695 56.6125 115.40075Q56.909374 115.432 57.159374 115.478874L57.159374 116.4945ZM61.159374 116.4945L61.096874 116.4945Q60.909374 116.432 60.6125 116.385124Q60.33125 116.322624 60.1125 116.322624Q59.39375 116.322624 59.065624 116.635124Q58.753124 116.947624 58.753124 117.77575L58.753124 117.9945L60.753124 117.9945L60.753124 118.916374L58.8 118.916374L58.8 124.541374L57.690624 124.541374L57.690624 118.916374L56.95625 118.916374L56.95625 117.9945L57.690624 117.9945L57.690624 117.77575Q57.690624 116.6195 58.26875 115.9945Q58.846874 115.3695 59.95625 115.3695Q60.315624 115.3695 60.6125 115.40075Q60.909374 115.432 61.159374 115.478874L61.159374 116.4945ZM67.1125 121.385124L62.284374 121.385124Q62.284374 121.978874 62.471874 122.432Q62.659374 122.885124 62.971874 123.166374Q63.26875 123.447624 63.690624 123.58825Q64.1125 123.728874 64.6125 123.728874Q65.28438 123.728874 65.95625 123.46325Q66.64375 123.197624 66.925 122.947624L66.9875 122.947624L66.9875 124.135124Q66.425 124.3695 65.84688 124.541374Q65.26875 124.697624 64.62813 124.697624Q63.003124 124.697624 62.08125 123.822624Q61.175 122.932 61.175 121.307Q61.175 119.697624 62.05 118.760124Q62.925 117.807 64.34688 117.807Q65.675 117.807 66.39375 118.58825Q67.1125 119.353874 67.1125 120.791374L67.1125 121.385124ZM66.03438 120.541374Q66.03438 119.666374 65.59688 119.197624Q65.175 118.728874 64.3 118.728874Q63.409374 118.728874 62.878124 119.2445Q62.3625 119.760124 62.284374 120.541374L66.03438 120.541374ZM74.47188 124.135124Q73.925 124.40075 73.425 124.541374Q72.94063 124.682 72.37813 124.682Q71.675 124.682 71.08125 124.478874Q70.4875 124.27575 70.06563 123.853874Q69.62813 123.432 69.39375 122.791374Q69.15938 122.135124 69.15938 121.27575Q69.15938 119.666374 70.03438 118.760124Q70.925 117.83825 72.37813 117.83825Q72.94063 117.83825 73.47188 118.010124Q74.01875 118.166374 74.47188 118.385124L74.47188 119.6195L74.40938 119.6195Q73.90938 119.21325 73.37813 119.010124Q72.84688 118.791374 72.33125 118.791374Q71.39375 118.791374 70.84688 119.432Q70.31563 120.057 70.31563 121.27575Q70.31563 122.46325 70.83125 123.103874Q71.3625 123.728874 72.33125 123.728874Q72.65938 123.728874 73.00313 123.65075Q73.3625 123.557 73.62813 123.416374Q73.87813 123.291374 74.08125 123.15075Q74.3 123.010124 74.40938 122.916374L74.47188 122.916374L74.47188 124.135124ZM79.03438 124.478874Q78.72188 124.572624 78.34688 124.6195Q77.9875 124.666374 77.70625 124.666374Q76.70625 124.666374 76.175 124.135124Q75.65938 123.58825 75.65938 122.40075L75.65938 118.916374L74.90938 118.916374L74.90938 117.9945L75.65938 117.9945L75.65938 116.1195L76.75313 116.1195L76.75313 117.9945L79.03438 117.9945L79.03438 118.916374L76.75313 118.916374L76.75313 121.90075Q76.75313 122.416374 76.76875 122.71325Q76.8 122.9945 76.94063 123.2445Q77.08125 123.478874 77.3 123.58825Q77.53438 123.697624 77.9875 123.697624Q78.25313 123.697624 78.55 123.6195Q78.84688 123.541374 78.97188 123.4945L79.03438 123.4945L79.03438 124.478874ZM86.1125 121.385124L81.28438 121.385124Q81.28438 121.978874 81.47188 122.432Q81.65938 122.885124 81.97188 123.166374Q82.26875 123.447624 82.69063 123.58825Q83.1125 123.728874 83.6125 123.728874Q84.28438 123.728874 84.95625 123.46325Q85.64375 123.197624 85.925 122.947624L85.9875 122.947624L85.9875 124.135124Q85.425 124.3695 84.84688 124.541374Q84.26875 124.697624 83.62813 124.697624Q82.00313 124.697624 81.08125 123.822624Q80.175 122.932 80.175 121.307Q80.175 119.697624 81.05 118.760124Q81.925 117.807 83.34688 117.807Q84.675 117.807 85.39375 118.58825Q86.1125 119.353874 86.1125 120.791374L86.1125 121.385124ZM85.03438 120.541374Q85.03438 119.666374 84.59688 119.197624Q84.175 118.728874 83.3 118.728874Q82.40938 118.728874 81.87813 119.2445Q81.3625 119.760124 81.28438 120.541374L85.03438 120.541374ZM93.94063 124.541374L92.84688 124.541374L92.84688 123.853874Q92.3625 124.260124 91.84688 124.4945Q91.33125 124.728874 90.7375 124.728874Q89.56563 124.728874 88.87813 123.822624Q88.19063 122.916374 88.19063 121.322624Q88.19063 120.478874 88.425 119.83825Q88.65938 119.182 89.06563 118.728874Q89.45625 118.27575 89.9875 118.041374Q90.51875 117.807 91.09688 117.807Q91.6125 117.807 92.00313 117.916374Q92.40938 118.02575 92.84688 118.260124L92.84688 115.416374L93.94063 115.416374L93.94063 124.541374ZM92.84688 122.932L92.84688 119.166374Q92.39375 118.978874 92.03438 118.90075Q91.69063 118.822624 91.28438 118.822624Q90.34688 118.822624 89.83125 119.46325Q89.31563 120.103874 89.31563 121.291374Q89.31563 122.46325 89.70625 123.072624Q90.1125 123.666374 91.00313 123.666374Q91.47188 123.666374 91.94063 123.46325Q92.425 123.260124 92.84688 122.932Z" fill-rule="nonzero"/><path fill="#9e9e9e" d="M24.909374 143.54138L20.175 143.54138L20.175 142.65076L22.003124 142.65076L22.003124 136.807L20.175 136.807L20.175 136.01013Q20.55 136.01013 20.971874 135.94763Q21.39375 135.88513 21.6125 135.76013Q21.878124 135.6195 22.034374 135.40076Q22.190624 135.16638 22.20625 134.79138L23.128124 134.79138L23.128124 142.65076L24.909374 142.65076L24.909374 143.54138ZM33.534374 140.71326Q33.534374 142.04138 32.659374 142.88513Q31.784374 143.72888 30.503124 143.72888Q29.8625 143.72888 29.33125 143.52576Q28.8 143.32263 28.409374 142.932Q27.89375 142.44763 27.6125 141.65076Q27.346874 140.83826 27.346874 139.71326Q27.346874 138.54138 27.596874 137.65076Q27.846874 136.76013 28.39375 136.057Q28.909374 135.40076 29.721874 135.02576Q30.534374 134.65076 31.628124 134.65076Q31.971874 134.65076 32.20625 134.682Q32.440624 134.71326 32.675 134.79138L32.675 135.90076L32.628124 135.90076Q32.45625 135.82263 32.128124 135.7445Q31.8 135.66638 31.45625 135.66638Q30.190624 135.66638 29.440624 136.44763Q28.690624 137.22888 28.565624 138.57263Q29.065624 138.27576 29.534374 138.1195Q30.01875 137.96326 30.64375 137.96326Q31.190624 137.96326 31.6125 138.07263Q32.05 138.16638 32.4875 138.47888Q33.003124 138.83826 33.26875 139.38513Q33.534374 139.932 33.534374 140.71326ZM32.346874 140.76013Q32.346874 140.21326 32.175 139.85388Q32.01875 139.4945 31.64375 139.22888Q31.378124 139.04138 31.05 138.9945Q30.721874 138.932 30.3625 138.932Q29.8625 138.932 29.440624 139.057Q29.01875 139.16638 28.565624 139.41638Q28.55 139.54138 28.534374 139.66638Q28.534374 139.77576 28.534374 139.96326Q28.534374 140.88513 28.721874 141.432Q28.925 141.96326 29.253124 142.27576Q29.51875 142.52576 29.83125 142.65076Q30.14375 142.76013 30.51875 142.76013Q31.3625 142.76013 31.846874 142.2445Q32.346874 141.72888 32.346874 140.76013ZM37.440624 143.54138L36.034374 143.54138L36.034374 141.8695L37.440624 141.8695L37.440624 143.54138ZM45.39375 139.182Q45.39375 141.52576 44.659374 142.63513Q43.925 143.72888 42.378124 143.72888Q40.8 143.72888 40.065624 142.6195Q39.346874 141.4945 39.346874 139.182Q39.346874 136.85388 40.08125 135.7445Q40.815624 134.63513 42.378124 134.63513Q43.940624 134.63513 44.659374 135.77576Q45.39375 136.90076 45.39375 139.182ZM43.846874 141.83826Q44.05 141.35388 44.128124 140.71326Q44.20625 140.07263 44.20625 139.182Q44.20625 138.29138 44.128124 137.63513Q44.05 136.97888 43.846874 136.51013Q43.64375 136.057 43.284374 135.83826Q42.925 135.60388 42.378124 135.60388Q41.815624 135.60388 41.45625 135.83826Q41.096874 136.057 40.89375 136.52576Q40.690624 136.96326 40.6125 137.66638Q40.55 138.35388 40.55 139.182Q40.55 140.10388 40.6125 140.72888Q40.675 141.33826 40.878124 141.82263Q41.08125 142.27576 41.425 142.52576Q41.784374 142.76013 42.378124 142.76013Q42.925 142.76013 43.284374 142.52576Q43.64375 142.29138 43.846874 141.83826ZM51.7375 137.22888Q51.7375 138.54138 51.175 139.182Q50.628124 139.82263 49.58125 139.82263Q48.51875 139.82263 47.971874 139.182Q47.425 138.54138 47.425 137.2445Q47.425 135.932 47.971874 135.29138Q48.534374 134.65076 49.58125 134.65076Q50.64375 134.65076 51.190624 135.307Q51.7375 135.94763 51.7375 137.22888ZM55.784374 134.82263L51.20625 143.54138L50.2375 143.54138L54.815624 134.82263L55.784374 134.82263ZM58.596874 141.1195Q58.596874 142.432 58.034374 143.07263Q57.471874 143.71326 56.440624 143.71326Q55.378124 143.71326 54.83125 143.07263Q54.284374 142.41638 54.284374 141.1195Q54.284374 139.807 54.83125 139.182Q55.39375 138.54138 56.440624 138.54138Q57.503124 138.54138 58.05 139.182Q58.596874 139.807 58.596874 141.1195ZM50.690624 137.22888Q50.690624 136.22888 50.425 135.83826Q50.159374 135.432 49.58125 135.432Q48.9875 135.432 48.721874 135.83826Q48.471874 136.22888 48.471874 137.2445Q48.471874 138.26013 48.721874 138.65076Q48.9875 139.04138 49.58125 139.04138Q50.159374 139.04138 50.425 138.65076Q50.690624 138.26013 50.690624 137.22888ZM57.55 141.1195Q57.55 140.1195 57.284374 139.72888Q57.034374 139.32263 56.440624 139.32263Q55.846874 139.32263 55.58125 139.72888Q55.33125 140.1195 55.33125 141.1195Q55.33125 142.13513 55.58125 142.54138Q55.846874 142.932 56.440624 142.932Q57.034374 142.932 57.284374 142.54138Q57.55 142.13513 57.55 141.1195Z" fill-rule="nonzero"/><path stroke="#757575" stroke-width="1.0" stroke-linecap="butt" d="M18.55 129.04138L159.23334 129.04138L238.32188 129.04138" fill-rule="nonzero"/><path fill="#9e9e9e" d="M240.32188 129.04138C240.32188 127.936806 239.42645 127.041374 238.32188 127.041374C237.21732 127.041374 236.32188 127.936806 236.32188 129.04138C236.32188 130.14595 237.21732 131.04138 238.32188 131.04138C239.42645 131.04138 240.32188 130.14595 240.32188 129.04138" fill-rule="nonzero"/><path fill="#000000" d="M538.4969 281.6103L537.2625 281.6103L536.40314 279.1728L532.6375 279.1728L531.77814 281.6103L530.60626 281.6103L533.77814 272.89154L535.325 272.89154L538.4969 281.6103ZM536.0594 278.18842L534.52814 273.89154L532.98126 278.18842L536.0594 278.18842ZM543.0594 273.56342L542.9969 273.56342Q542.8094 273.50092 542.5125 273.45404Q542.23126 273.39154 542.0125 273.39154Q541.29376 273.39154 540.96564 273.70404Q540.65314 274.01654 540.65314 274.84467L540.65314 275.06342L542.65314 275.06342L542.65314 275.9853L540.7 275.9853L540.7 281.6103L539.59064 281.6103L539.59064 275.9853L538.85626 275.9853L538.85626 275.06342L539.59064 275.06342L539.59064 274.84467Q539.59064 273.68842 540.16876 273.06342Q540.7469 272.43842 541.85626 272.43842Q542.21564 272.43842 542.5125 272.46967Q542.8094 272.50092 543.0594 272.5478L543.0594 273.56342ZM547.0594 273.56342L546.9969 273.56342Q546.8094 273.50092 546.5125 273.45404Q546.23126 273.39154 546.0125 273.39154Q545.29376 273.39154 544.96564 273.70404Q544.65314 274.01654 544.65314 274.84467L544.65314 275.06342L546.65314 275.06342L546.65314 275.9853L544.7 275.9853L544.7 281.6103L543.59064 281.6103L543.59064 275.9853L542.85626 275.9853L542.85626 275.06342L543.59064 275.06342L543.59064 274.84467Q543.59064 273.68842 544.16876 273.06342Q544.7469 272.43842 545.85626 272.43842Q546.21564 272.43842 546.5125 272.46967Q546.8094 272.50092 547.0594 272.5478L547.0594 273.56342ZM553.0125 278.45404L548.1844 278.45404Q548.1844 279.0478 548.3719 279.50092Q548.5594 279.95404 548.8719 280.2353Q549.16876 280.51654 549.59064 280.65717Q550.0125 280.7978 550.5125 280.7978Q551.1844 280.7978 551.85626 280.53217Q552.54376 280.26654 552.825 280.01654L552.8875 280.01654L552.8875 281.20404Q552.325 281.43842 551.7469 281.6103Q551.16876 281.76654 550.52814 281.76654Q548.90314 281.76654 547.98126 280.89154Q547.075 280.00092 547.075 278.37592Q547.075 276.76654 547.95 275.82904Q548.825 274.87592 550.2469 274.87592Q551.575 274.87592 552.29376 275.65717Q553.0125 276.4228 553.0125 277.8603L553.0125 278.45404ZM551.9344 277.6103Q551.9344 276.7353 551.4969 276.26654Q551.075 275.7978 550.2 275.7978Q549.3094 275.7978 548.77814 276.31342Q548.2625 276.82904 548.1844 277.6103L551.9344 277.6103ZM560.3719 281.20404Q559.825 281.46967 559.325 281.6103Q558.84064 281.75092 558.27814 281.75092Q557.575 281.75092 556.98126 281.5478Q556.3875 281.34467 555.96564 280.9228Q555.52814 280.50092 555.29376 279.8603Q555.0594 279.20404 555.0594 278.34467Q555.0594 276.7353 555.9344 275.82904Q556.825 274.90717 558.27814 274.90717Q558.84064 274.90717 559.3719 275.07904Q559.91876 275.2353 560.3719 275.45404L560.3719 276.68842L560.3094 276.68842Q559.8094 276.28217 559.27814 276.07904Q558.7469 275.8603 558.23126 275.8603Q557.29376 275.8603 556.7469 276.50092Q556.21564 277.12592 556.21564 278.34467Q556.21564 279.53217 556.73126 280.1728Q557.2625 280.7978 558.23126 280.7978Q558.5594 280.7978 558.90314 280.71967Q559.2625 280.62592 559.52814 280.4853Q559.77814 280.3603 559.98126 280.21967Q560.2 280.07904 560.3094 279.9853L560.3719 279.9853L560.3719 281.20404ZM564.9344 281.5478Q564.6219 281.64154 564.2469 281.68842Q563.8875 281.7353 563.60626 281.7353Q562.60626 281.7353 562.075 281.20404Q561.5594 280.65717 561.5594 279.46967L561.5594 275.9853L560.8094 275.9853L560.8094 275.06342L561.5594 275.06342L561.5594 273.18842L562.65314 273.18842L562.65314 275.06342L564.9344 275.06342L564.9344 275.9853L562.65314 275.9853L562.65314 278.96967Q562.65314 279.4853 562.66876 279.78217Q562.7 280.06342 562.84064 280.31342Q562.98126 280.5478 563.2 280.65717Q563.4344 280.76654 563.8875 280.76654Q564.15314 280.76654 564.45 280.68842Q564.7469 280.6103 564.8719 280.56342L564.9344 280.56342L564.9344 281.5478ZM572.0125 278.45404L567.1844 278.45404Q567.1844 279.0478 567.3719 279.50092Q567.5594 279.95404 567.8719 280.2353Q568.16876 280.51654 568.59064 280.65717Q569.0125 280.7978 569.5125 280.7978Q570.1844 280.7978 570.85626 280.53217Q571.54376 280.26654 571.825 280.01654L571.8875 280.01654L571.8875 281.20404Q571.325 281.43842 570.7469 281.6103Q570.16876 281.76654 569.52814 281.76654Q567.90314 281.76654 566.98126 280.89154Q566.075 280.00092 566.075 278.37592Q566.075 276.76654 566.95 275.82904Q567.825 274.87592 569.2469 274.87592Q570.575 274.87592 571.29376 275.65717Q572.0125 276.4228 572.0125 277.8603L572.0125 278.45404ZM570.9344 277.6103Q570.9344 276.7353 570.4969 276.26654Q570.075 275.7978 569.2 275.7978Q568.3094 275.7978 567.77814 276.31342Q567.2625 276.82904 567.1844 277.6103L570.9344 277.6103ZM579.84064 281.6103L578.7469 281.6103L578.7469 280.9228Q578.2625 281.32904 577.7469 281.56342Q577.23126 281.7978 576.6375 281.7978Q575.46564 281.7978 574.77814 280.89154Q574.09064 279.9853 574.09064 278.39154Q574.09064 277.5478 574.325 276.90717Q574.5594 276.25092 574.96564 275.7978Q575.35626 275.34467 575.8875 275.1103Q576.41876 274.87592 576.9969 274.87592Q577.5125 274.87592 577.90314 274.9853Q578.3094 275.09467 578.7469 275.32904L578.7469 272.4853L579.84064 272.4853L579.84064 281.6103ZM578.7469 280.00092L578.7469 276.2353Q578.29376 276.0478 577.9344 275.96967Q577.59064 275.89154 577.1844 275.89154Q576.2469 275.89154 575.73126 276.53217Q575.21564 277.1728 575.21564 278.3603Q575.21564 279.53217 575.60626 280.14154Q576.0125 280.7353 576.90314 280.7353Q577.3719 280.7353 577.84064 280.53217Q578.325 280.32904 578.7469 280.00092Z" fill-rule="nonzero"/><path fill="#9e9e9e" d="M547.3719 298.1728Q547.3719 299.31342 546.48126 300.06342Q545.60626 300.81342 544.2625 300.81342Q542.84064 300.81342 541.9969 300.07904Q541.16876 299.34467 541.16876 298.20404Q541.16876 297.46967 541.59064 296.89154Q542.0125 296.2978 542.77814 295.95404L542.77814 295.9228Q542.075 295.5478 541.73126 295.1103Q541.40314 294.65717 541.40314 293.9853Q541.40314 293.00092 542.2 292.34467Q543.0125 291.68842 544.2625 291.68842Q545.575 291.68842 546.35626 292.31342Q547.1375 292.93842 547.1375 293.90717Q547.1375 294.50092 546.7625 295.07904Q546.3875 295.64154 545.6844 295.96967L545.6844 296.00092Q546.4969 296.34467 546.9344 296.8603Q547.3719 297.37592 547.3719 298.1728ZM545.98126 293.9228Q545.98126 293.2978 545.4969 292.9228Q545.0125 292.5478 544.2625 292.5478Q543.52814 292.5478 543.04376 292.90717Q542.575 293.25092 542.575 293.84467Q542.575 294.26654 542.8094 294.57904Q543.0594 294.89154 543.52814 295.12592Q543.7469 295.2353 544.15314 295.40717Q544.5594 295.56342 544.95 295.68842Q545.52814 295.2978 545.7469 294.89154Q545.98126 294.46967 545.98126 293.9228ZM546.15314 298.28217Q546.15314 297.75092 545.91876 297.4228Q545.6844 297.09467 544.9969 296.76654Q544.71564 296.64154 544.3875 296.53217Q544.0594 296.4228 543.5125 296.21967Q542.98126 296.50092 542.66876 297.00092Q542.35626 297.4853 542.35626 298.1103Q542.35626 298.90717 542.8875 299.4228Q543.4344 299.93842 544.27814 299.93842Q545.1375 299.93842 545.6375 299.50092Q546.15314 299.06342 546.15314 298.28217ZM555.4969 298.15717L554.2 298.15717L554.2 300.6103L553.075 300.6103L553.075 298.15717L548.90314 298.15717L548.90314 296.81342L553.1219 291.89154L554.2 291.89154L554.2 297.21967L555.4969 297.21967L555.4969 298.15717ZM553.075 297.21967L553.075 293.28217L549.7 297.21967L553.075 297.21967ZM559.34064 300.6103L557.9344 300.6103L557.9344 298.93842L559.34064 298.93842L559.34064 300.6103ZM567.29376 296.25092Q567.29376 298.59467 566.5594 299.70404Q565.825 300.7978 564.27814 300.7978Q562.7 300.7978 561.96564 299.68842Q561.2469 298.56342 561.2469 296.25092Q561.2469 293.9228 561.98126 292.81342Q562.71564 291.70404 564.27814 291.70404Q565.84064 291.70404 566.5594 292.84467Q567.29376 293.96967 567.29376 296.25092ZM565.7469 298.90717Q565.95 298.4228 566.02814 297.78217Q566.10626 297.14154 566.10626 296.25092Q566.10626 295.3603 566.02814 294.70404Q565.95 294.0478 565.7469 293.57904Q565.54376 293.12592 565.1844 292.90717Q564.825 292.6728 564.27814 292.6728Q563.71564 292.6728 563.35626 292.90717Q562.9969 293.12592 562.79376 293.59467Q562.59064 294.03217 562.5125 294.7353Q562.45 295.4228 562.45 296.25092Q562.45 297.1728 562.5125 297.7978Q562.575 298.40717 562.77814 298.89154Q562.98126 299.34467 563.325 299.59467Q563.6844 299.82904 564.27814 299.82904Q564.825 299.82904 565.1844 299.59467Q565.54376 299.3603 565.7469 298.90717ZM573.6375 294.2978Q573.6375 295.6103 573.075 296.25092Q572.52814 296.89154 571.48126 296.89154Q570.41876 296.89154 569.8719 296.25092Q569.325 295.6103 569.325 294.31342Q569.325 293.00092 569.8719 292.3603Q570.4344 291.71967 571.48126 291.71967Q572.54376 291.71967 573.09064 292.37592Q573.6375 293.01654 573.6375 294.2978ZM577.6844 291.89154L573.10626 300.6103L572.1375 300.6103L576.71564 291.89154L577.6844 291.89154ZM580.4969 298.18842Q580.4969 299.50092 579.9344 300.14154Q579.3719 300.78217 578.34064 300.78217Q577.27814 300.78217 576.73126 300.14154Q576.1844 299.4853 576.1844 298.18842Q576.1844 296.87592 576.73126 296.25092Q577.29376 295.6103 578.34064 295.6103Q579.40314 295.6103 579.95 296.25092Q580.4969 296.87592 580.4969 298.18842ZM572.59064 294.2978Q572.59064 293.2978 572.325 292.90717Q572.0594 292.50092 571.48126 292.50092Q570.8875 292.50092 570.6219 292.90717Q570.3719 293.2978 570.3719 294.31342Q570.3719 295.32904 570.6219 295.71967Q570.8875 296.1103 571.48126 296.1103Q572.0594 296.1103 572.325 295.71967Q572.59064 295.32904 572.59064 294.2978ZM579.45 298.18842Q579.45 297.18842 579.1844 296.7978Q578.9344 296.39154 578.34064 296.39154Q577.7469 296.39154 577.48126 296.7978Q577.23126 297.18842 577.23126 298.18842Q577.23126 299.20404 577.48126 299.6103Q577.7469 300.00092 578.34064 300.00092Q578.9344 300.00092 579.1844 299.6103Q579.45 299.20404 579.45 298.18842Z" fill-rule="nonzero"/><path stroke="#757575" stroke-width="1.0" stroke-linecap="butt" d="M581.45 286.1103L440.76666 286.1103L361.67813 286.1103" fill-rule="nonzero"/><path fill="#9e9e9e" d="M363.67813 286.1103C363.67813 285.00574 362.78268 284.1103 361.67813 284.1103C360.57355 284.1103 359.67813 285.00574 359.67813 286.1103C359.67813 287.21487 360.57355 288.1103 361.67813 288.1103C362.78268 288.1103 363.67813 287.21487 363.67813 286.1103" fill-rule="nonzero"/><path fill="#000000" d="M31.971874 39.55L29.909374 39.55L28.4875 35.503124L22.190624 35.503124L20.76875 39.55L18.8 39.55L24.096874 25.003124L26.675 25.003124L31.971874 39.55ZM27.89375 33.83125L25.33125 26.690624L22.784374 33.83125L27.89375 33.83125ZM43.39375 39.55L41.565624 39.55L41.565624 38.33125Q40.64375 39.065624 39.784374 39.45625Q38.940624 39.846874 37.909374 39.846874Q36.190624 39.846874 35.2375 38.8Q34.284374 37.753124 34.284374 35.721874L34.284374 28.64375L36.1125 28.64375L36.1125 34.846874Q36.1125 35.675 36.190624 36.26875Q36.26875 36.8625 36.51875 37.284374Q36.784374 37.70625 37.20625 37.909374Q37.628124 38.096874 38.425 38.096874Q39.14375 38.096874 39.9875 37.7375Q40.83125 37.3625 41.565624 36.784374L41.565624 28.64375L43.39375 28.64375L43.39375 39.55ZM55.14375 36.409374Q55.14375 37.89375 53.909374 38.8625Q52.675 39.815624 50.534374 39.815624Q49.33125 39.815624 48.315624 39.534374Q47.315624 39.2375 46.628124 38.89375L46.628124 36.83125L46.721874 36.83125Q47.596874 37.4875 48.659374 37.878124Q49.721874 38.253124 50.690624 38.253124Q51.909374 38.253124 52.58125 37.8625Q53.26875 37.471874 53.26875 36.64375Q53.26875 35.9875 52.909374 35.659374Q52.534374 35.33125 51.471874 35.096874Q51.08125 35.003124 50.45625 34.89375Q49.83125 34.76875 49.315624 34.64375Q47.878124 34.253124 47.26875 33.51875Q46.675 32.784374 46.675 31.70625Q46.675 31.034374 46.95625 30.440624Q47.2375 29.846874 47.8 29.378124Q48.346874 28.909374 49.190624 28.64375Q50.034374 28.378124 51.08125 28.378124Q52.05 28.378124 53.05 28.628124Q54.05 28.8625 54.721874 29.190624L54.721874 31.159374L54.628124 31.159374Q53.925 30.64375 52.909374 30.284374Q51.909374 29.925 50.940624 29.925Q49.940624 29.925 49.2375 30.315624Q48.55 30.70625 48.55 31.45625Q48.55 32.14375 48.971874 32.471874Q49.378124 32.815624 50.3 33.034374Q50.8 33.159374 51.425 33.284374Q52.065624 33.39375 52.4875 33.4875Q53.76875 33.784374 54.45625 34.4875Q55.14375 35.20625 55.14375 36.409374ZM63.01875 39.45625Q62.503124 39.596874 61.89375 39.675Q61.284374 39.76875 60.8 39.76875Q59.128124 39.76875 58.253124 38.878124Q57.39375 37.971874 57.39375 35.9875L57.39375 30.190624L56.159374 30.190624L56.159374 28.64375L57.39375 28.64375L57.39375 25.503124L59.2375 25.503124L59.2375 28.64375L63.01875 28.64375L63.01875 30.190624L59.2375 30.190624L59.2375 35.159374Q59.2375 36.01875 59.26875 36.503124Q59.315624 36.9875 59.55 37.39375Q59.753124 37.784374 60.128124 37.971874Q60.51875 38.159374 61.284374 38.159374Q61.7375 38.159374 62.221874 38.034374Q62.70625 37.89375 62.925 37.8L63.01875 37.8L63.01875 39.45625ZM72.15938 30.64375L72.06563 30.64375Q71.65938 30.55 71.26875 30.503124Q70.87813 30.45625 70.3625 30.45625Q69.50313 30.45625 68.70625 30.83125Q67.925 31.20625 67.19063 31.8L67.19063 39.55L65.3625 39.55L65.3625 28.64375L67.19063 28.64375L67.19063 30.253124Q68.28438 29.378124 69.1125 29.01875Q69.95625 28.64375 70.83125 28.64375Q71.3 28.64375 71.51875 28.675Q71.7375 28.690624 72.15938 28.753124L72.15938 30.64375ZM82.83125 39.55L81.00313 39.55L81.00313 38.39375Q80.76875 38.55 80.34688 38.846874Q79.94063 39.14375 79.55 39.33125Q79.08125 39.55 78.4875 39.690624Q77.89375 39.846874 77.09688 39.846874Q75.6125 39.846874 74.58125 38.878124Q73.56563 37.89375 73.56563 36.378124Q73.56563 35.14375 74.09688 34.378124Q74.62813 33.6125 75.6125 33.175Q76.6125 32.7375 78.00313 32.58125Q79.40938 32.425 81.00313 32.346874L81.00313 32.065624Q81.00313 31.440624 80.78438 31.034374Q80.56563 30.6125 80.15938 30.378124Q79.76875 30.159374 79.22188 30.08125Q78.675 30.003124 78.08125 30.003124Q77.3625 30.003124 76.47188 30.190624Q75.58125 30.378124 74.62813 30.7375L74.53438 30.7375L74.53438 28.878124Q75.06563 28.721874 76.08125 28.55Q77.09688 28.378124 78.08125 28.378124Q79.2375 28.378124 80.09688 28.565624Q80.95625 28.753124 81.58125 29.221874Q82.19063 29.659374 82.50313 30.378124Q82.83125 31.096874 82.83125 32.14375L82.83125 39.55ZM81.00313 36.8625L81.00313 33.83125Q80.175 33.878124 79.03438 33.971874Q77.89375 34.065624 77.22188 34.253124Q76.44063 34.4875 75.94063 34.95625Q75.45625 35.425 75.45625 36.253124Q75.45625 37.190624 76.01875 37.675Q76.59688 38.14375 77.75313 38.14375Q78.72188 38.14375 79.51875 37.76875Q80.33125 37.39375 81.00313 36.8625ZM88.20625 39.55L86.37813 39.55L86.37813 24.346874L88.20625 24.346874L88.20625 39.55ZM94.33125 26.815624L92.25313 26.815624L92.25313 24.909374L94.33125 24.909374L94.33125 26.815624ZM94.20625 39.55L92.37813 39.55L92.37813 28.64375L94.20625 28.64375L94.20625 39.55ZM106.83125 39.55L105.00313 39.55L105.00313 38.39375Q104.76875 38.55 104.34688 38.846874Q103.94063 39.14375 103.55 39.33125Q103.08125 39.55 102.4875 39.690624Q101.89375 39.846874 101.09688 39.846874Q99.6125 39.846874 98.58125 38.878124Q97.56563 37.89375 97.56563 36.378124Q97.56563 35.14375 98.09688 34.378124Q98.62813 33.6125 99.6125 33.175Q100.6125 32.7375 102.00313 32.58125Q103.40938 32.425 105.00313 32.346874L105.00313 32.065624Q105.00313 31.440624 104.78438 31.034374Q104.56563 30.6125 104.15938 30.378124Q103.76875 30.159374 103.22188 30.08125Q102.675 30.003124 102.08125 30.003124Q101.3625 30.003124 100.47188 30.190624Q99.58125 30.378124 98.62813 30.7375L98.53438 30.7375L98.53438 28.878124Q99.06563 28.721874 100.08125 28.55Q101.09688 28.378124 102.08125 28.378124Q103.2375 28.378124 104.09688 28.565624Q104.95625 28.753124 105.58125 29.221874Q106.19063 29.659374 106.50313 30.378124Q106.83125 31.096874 106.83125 32.14375L106.83125 39.55ZM105.00313 36.8625L105.00313 33.83125Q104.175 33.878124 103.03438 33.971874Q101.89375 34.065624 101.22188 34.253124Q100.44063 34.4875 99.94063 34.95625Q99.45625 35.425 99.45625 36.253124Q99.45625 37.190624 100.01875 37.675Q100.59688 38.14375 101.75313 38.14375Q102.72188 38.14375 103.51875 37.76875Q104.33125 37.39375 105.00313 36.8625ZM119.47188 39.55L117.64375 39.55L117.64375 33.33125Q117.64375 32.58125 117.55 31.925Q117.47188 31.26875 117.2375 30.89375Q116.9875 30.4875 116.51875 30.284374Q116.06563 30.08125 115.33125 30.08125Q114.58125 30.08125 113.75313 30.45625Q112.94063 30.83125 112.19063 31.409374L112.19063 39.55L110.3625 39.55L110.3625 28.64375L112.19063 28.64375L112.19063 29.846874Q113.05 29.14375 113.97188 28.7375Q114.89375 28.33125 115.8625 28.33125Q117.62813 28.33125 118.55 29.409374Q119.47188 30.471874 119.47188 32.471874L119.47188 39.55ZM140.01875 29.409374Q140.01875 30.3625 139.675 31.190624Q139.34688 32.01875 138.7375 32.628124Q137.9875 33.378124 136.95625 33.753124Q135.94063 34.128124 134.37813 34.128124L132.44063 34.128124L132.44063 39.55L130.50313 39.55L130.50313 25.003124L134.45625 25.003124Q135.75313 25.003124 136.65938 25.221874Q137.58125 25.440624 138.28438 25.909374Q139.1125 26.471874 139.56563 27.3Q140.01875 28.128124 140.01875 29.409374ZM138.00313 29.45625Q138.00313 28.70625 137.7375 28.14375Q137.47188 27.58125 136.94063 27.2375Q136.47188 26.925 135.8625 26.8Q135.26875 26.675 134.34688 26.675L132.44063 26.675L132.44063 32.471874L134.06563 32.471874Q135.2375 32.471874 135.97188 32.26875Q136.70625 32.065624 137.15938 31.596874Q137.62813 31.128124 137.81563 30.6125Q138.00313 30.096874 138.00313 29.45625ZM151.65938 34.096874Q151.65938 36.76875 150.28438 38.315624Q148.925 39.846874 146.62813 39.846874Q144.31563 39.846874 142.94063 38.315624Q141.58125 36.76875 141.58125 34.096874Q141.58125 31.440624 142.94063 29.89375Q144.31563 28.33125 146.62813 28.33125Q148.925 28.33125 150.28438 29.89375Q151.65938 31.440624 151.65938 34.096874ZM149.75313 34.096874Q149.75313 31.9875 148.925 30.95625Q148.09688 29.925 146.62813 29.925Q145.12813 29.925 144.3 30.95625Q143.4875 31.9875 143.4875 34.096874Q143.4875 36.14375 144.31563 37.20625Q145.14375 38.26875 146.62813 38.26875Q148.09688 38.26875 148.925 37.221874Q149.75313 36.175 149.75313 34.096874ZM163.95625 33.95625Q163.95625 35.284374 163.56563 36.39375Q163.19063 37.4875 162.50313 38.253124Q161.8625 38.971874 160.9875 39.378124Q160.1125 39.76875 159.12813 39.76875Q158.28438 39.76875 157.59688 39.58125Q156.90938 39.39375 156.19063 39.003124L156.19063 43.58125L154.3625 43.58125L154.3625 28.64375L156.19063 28.64375L156.19063 29.784374Q156.925 29.175 157.83125 28.753124Q158.75313 28.33125 159.78438 28.33125Q161.75313 28.33125 162.84688 29.83125Q163.95625 31.315624 163.95625 33.95625ZM162.06563 34.01875Q162.06563 32.034374 161.39375 31.065624Q160.72188 30.08125 159.31563 30.08125Q158.53438 30.08125 157.72188 30.425Q156.925 30.76875 156.19063 31.33125L156.19063 37.503124Q156.97188 37.8625 157.53438 37.9875Q158.09688 38.1125 158.81563 38.1125Q160.34688 38.1125 161.20625 37.08125Q162.06563 36.05 162.06563 34.01875ZM175.39375 39.55L173.56563 39.55L173.56563 38.33125Q172.64375 39.065624 171.78438 39.45625Q170.94063 39.846874 169.90938 39.846874Q168.19063 39.846874 167.2375 38.8Q166.28438 37.753124 166.28438 35.721874L166.28438 28.64375L168.1125 28.64375L168.1125 34.846874Q168.1125 35.675 168.19063 36.26875Q168.26875 36.8625 168.51875 37.284374Q168.78438 37.70625 169.20625 37.909374Q169.62813 38.096874 170.425 38.096874Q171.14375 38.096874 171.9875 37.7375Q172.83125 37.3625 173.56563 36.784374L173.56563 28.64375L175.39375 28.64375L175.39375 39.55ZM181.20625 39.55L179.37813 39.55L179.37813 24.346874L181.20625 24.346874L181.20625 39.55ZM193.83125 39.55L192.00313 39.55L192.00313 38.39375Q191.76875 38.55 191.34688 38.846874Q190.94063 39.14375 190.55 39.33125Q190.08125 39.55 189.4875 39.690624Q188.89375 39.846874 188.09688 39.846874Q186.6125 39.846874 185.58125 38.878124Q184.56563 37.89375 184.56563 36.378124Q184.56563 35.14375 185.09688 34.378124Q185.62813 33.6125 186.6125 33.175Q187.6125 32.7375 189.00313 32.58125Q190.40938 32.425 192.00313 32.346874L192.00313 32.065624Q192.00313 31.440624 191.78438 31.034374Q191.56563 30.6125 191.15938 30.378124Q190.76875 30.159374 190.22188 30.08125Q189.675 30.003124 189.08125 30.003124Q188.3625 30.003124 187.47188 30.190624Q186.58125 30.378124 185.62813 30.7375L185.53438 30.7375L185.53438 28.878124Q186.06563 28.721874 187.08125 28.55Q188.09688 28.378124 189.08125 28.378124Q190.2375 28.378124 191.09688 28.565624Q191.95625 28.753124 192.58125 29.221874Q193.19063 29.659374 193.50313 30.378124Q193.83125 31.096874 193.83125 32.14375L193.83125 39.55ZM192.00313 36.8625L192.00313 33.83125Q191.175 33.878124 190.03438 33.971874Q188.89375 34.065624 188.22188 34.253124Q187.44063 34.4875 186.94063 34.95625Q186.45625 35.425 186.45625 36.253124Q186.45625 37.190624 187.01875 37.675Q187.59688 38.14375 188.75313 38.14375Q189.72188 38.14375 190.51875 37.76875Q191.33125 37.39375 192.00313 36.8625ZM203.01875 39.45625Q202.50313 39.596874 201.89375 39.675Q201.28438 39.76875 200.8 39.76875Q199.12813 39.76875 198.25313 38.878124Q197.39375 37.971874 197.39375 35.9875L197.39375 30.190624L196.15938 30.190624L196.15938 28.64375L197.39375 28.64375L197.39375 25.503124L199.2375 25.503124L199.2375 28.64375L203.01875 28.64375L203.01875 30.190624L199.2375 30.190624L199.2375 35.159374Q199.2375 36.01875 199.26875 36.503124Q199.31563 36.9875 199.55 37.39375Q199.75313 37.784374 200.12813 37.971874Q200.51875 38.159374 201.28438 38.159374Q201.7375 38.159374 202.22188 38.034374Q202.70625 37.89375 202.925 37.8L203.01875 37.8L203.01875 39.45625ZM207.33125 26.815624L205.25313 26.815624L205.25313 24.909374L207.33125 24.909374L207.33125 26.815624ZM207.20625 39.55L205.37813 39.55L205.37813 28.64375L207.20625 28.64375L207.20625 39.55ZM220.65938 34.096874Q220.65938 36.76875 219.28438 38.315624Q217.925 39.846874 215.62813 39.846874Q213.31563 39.846874 211.94063 38.315624Q210.58125 36.76875 210.58125 34.096874Q210.58125 31.440624 211.94063 29.89375Q213.31563 28.33125 215.62813 28.33125Q217.925 28.33125 219.28438 29.89375Q220.65938 31.440624 220.65938 34.096874ZM218.75313 34.096874Q218.75313 31.9875 217.925 30.95625Q217.09688 29.925 215.62813 29.925Q214.12813 29.925 213.3 30.95625Q212.4875 31.9875 212.4875 34.096874Q212.4875 36.14375 213.31563 37.20625Q214.14375 38.26875 215.62813 38.26875Q217.09688 38.26875 217.925 37.221874Q218.75313 36.175 218.75313 34.096874ZM232.47188 39.55L230.64375 39.55L230.64375 33.33125Q230.64375 32.58125 230.55 31.925Q230.47188 31.26875 230.2375 30.89375Q229.9875 30.4875 229.51875 30.284374Q229.06563 30.08125 228.33125 30.08125Q227.58125 30.08125 226.75313 30.45625Q225.94063 30.83125 225.19063 31.409374L225.19063 39.55L223.3625 39.55L223.3625 28.64375L225.19063 28.64375L225.19063 29.846874Q226.05 29.14375 226.97188 28.7375Q227.89375 28.33125 228.8625 28.33125Q230.62813 28.33125 231.55 29.409374Q232.47188 30.471874 232.47188 32.471874L232.47188 39.55ZM255.78438 32.3Q255.78438 34.26875 254.925 35.89375Q254.06563 37.503124 252.62813 38.39375Q251.62813 39.003124 250.39375 39.284374Q249.175 39.55 247.175 39.55L243.50313 39.55L243.50313 25.003124L247.14375 25.003124Q249.26875 25.003124 250.51875 25.315624Q251.76875 25.628124 252.64375 26.159374Q254.12813 27.08125 254.95625 28.628124Q255.78438 30.175 255.78438 32.3ZM253.76875 32.26875Q253.76875 30.55 253.175 29.378124Q252.58125 28.20625 251.39375 27.534374Q250.53438 27.05 249.56563 26.8625Q248.59688 26.675 247.25313 26.675L245.44063 26.675L245.44063 37.89375L247.25313 37.89375Q248.64375 37.89375 249.69063 37.690624Q250.7375 37.471874 251.59688 36.925Q252.69063 36.221874 253.22188 35.096874Q253.76875 33.95625 253.76875 32.26875ZM260.33124 26.815624L258.2531 26.815624L258.2531 24.909374L260.33124 24.909374L260.33124 26.815624ZM260.20624 39.55L258.3781 39.55L258.3781 28.64375L260.20624 28.64375L260.20624 39.55ZM271.15936 30.64375L271.0656 30.64375Q270.65936 30.55 270.26874 30.503124Q269.8781 30.45625 269.3625 30.45625Q268.5031 30.45625 267.70624 30.83125Q266.925 31.20625 266.1906 31.8L266.1906 39.55L264.3625 39.55L264.3625 28.64375L266.1906 28.64375L266.1906 30.253124Q267.28436 29.378124 268.1125 29.01875Q268.95624 28.64375 269.83124 28.64375Q270.3 28.64375 270.51874 28.675Q270.7375 28.690624 271.15936 28.753124L271.15936 30.64375ZM282.4875 34.284374L274.45624 34.284374Q274.45624 35.284374 274.7531 36.034374Q275.05 36.784374 275.58124 37.26875Q276.09686 37.7375 276.78436 37.971874Q277.4875 38.20625 278.33124 38.20625Q279.4406 38.20625 280.5656 37.76875Q281.6906 37.315624 282.175 36.878124L282.26874 36.878124L282.26874 38.878124Q281.34686 39.26875 280.3781 39.534374Q279.40936 39.8 278.34686 39.8Q275.6281 39.8 274.09686 38.33125Q272.58124 36.8625 272.58124 34.159374Q272.58124 31.4875 274.03436 29.909374Q275.5031 28.33125 277.89374 28.33125Q280.09686 28.33125 281.28436 29.628124Q282.4875 30.909374 282.4875 33.284374L282.4875 34.284374ZM280.70624 32.878124Q280.6906 31.440624 279.97186 30.64375Q279.2531 29.846874 277.78436 29.846874Q276.3156 29.846874 275.4406 30.721874Q274.5656 31.596874 274.45624 32.878124L280.70624 32.878124ZM293.425 38.8625Q292.5031 39.3 291.675 39.55Q290.8625 39.8 289.925 39.8Q288.7531 39.8 287.7531 39.45625Q286.76874 39.096874 286.0656 38.39375Q285.3625 37.690624 284.97186 36.628124Q284.58124 35.55 284.58124 34.1125Q284.58124 31.440624 286.05 29.925Q287.51874 28.39375 289.925 28.39375Q290.8625 28.39375 291.76874 28.659374Q292.675 28.909374 293.425 29.3L293.425 31.33125L293.33124 31.33125Q292.4875 30.675 291.59686 30.33125Q290.70624 29.971874 289.84686 29.971874Q288.28436 29.971874 287.3781 31.034374Q286.4875 32.08125 286.4875 34.1125Q286.4875 36.08125 287.3625 37.14375Q288.2531 38.20625 289.84686 38.20625Q290.40936 38.20625 290.9875 38.065624Q291.5656 37.909374 292.01874 37.675Q292.425 37.471874 292.76874 37.2375Q293.1281 37.003124 293.33124 36.846874L293.425 36.846874L293.425 38.8625ZM301.01874 39.45625Q300.5031 39.596874 299.89374 39.675Q299.28436 39.76875 298.8 39.76875Q297.1281 39.76875 296.2531 38.878124Q295.39374 37.971874 295.39374 35.9875L295.39374 30.190624L294.15936 30.190624L294.15936 28.64375L295.39374 28.64375L295.39374 25.503124L297.2375 25.503124L297.2375 28.64375L301.01874 28.64375L301.01874 30.190624L297.2375 30.190624L297.2375 35.159374Q297.2375 36.01875 297.26874 36.503124Q297.3156 36.9875 297.55 37.39375Q297.7531 37.784374 298.1281 37.971874Q298.51874 38.159374 299.28436 38.159374Q299.7375 38.159374 300.22186 38.034374Q300.70624 37.89375 300.925 37.8L301.01874 37.8L301.01874 39.45625ZM305.20624 39.55L303.3781 39.55L303.3781 24.346874L305.20624 24.346874L305.20624 39.55ZM318.78436 28.64375L312.425 43.58125L310.45624 43.58125L312.4875 39.01875L308.14374 28.64375L310.14374 28.64375L313.4875 36.721874L316.8625 28.64375L318.78436 28.64375ZM339.97186 39.55L337.90936 39.55L336.4875 35.503124L330.1906 35.503124L328.76874 39.55L326.8 39.55L332.09686 25.003124L334.675 25.003124L339.97186 39.55ZM335.89374 33.83125L333.33124 26.690624L330.78436 33.83125L335.89374 33.83125ZM348.22186 26.128124L348.1281 26.128124Q347.83124 26.05 347.33124 25.95625Q346.84686 25.8625 346.47186 25.8625Q345.3 25.8625 344.76874 26.39375Q344.2375 26.909374 344.2375 28.26875L344.2375 28.64375L347.55 28.64375L347.55 30.190624L344.28436 30.190624L344.28436 39.55L342.45624 39.55L342.45624 30.190624L341.22186 30.190624L341.22186 28.64375L342.45624 28.64375L342.45624 28.284374Q342.45624 26.33125 343.425 25.3Q344.39374 24.253124 346.22186 24.253124Q346.83124 24.253124 347.3156 24.315624Q347.8156 24.378124 348.22186 24.45625L348.22186 26.128124ZM355.22186 26.128124L355.1281 26.128124Q354.83124 26.05 354.33124 25.95625Q353.84686 25.8625 353.47186 25.8625Q352.3 25.8625 351.76874 26.39375Q351.2375 26.909374 351.2375 28.26875L351.2375 28.64375L354.55 28.64375L354.55 30.190624L351.28436 30.190624L351.28436 39.55L349.45624 39.55L349.45624 30.190624L348.22186 30.190624L348.22186 28.64375L349.45624 28.64375L349.45624 28.284374Q349.45624 26.33125 350.425 25.3Q351.39374 24.253124 353.22186 24.253124Q353.83124 24.253124 354.3156 24.315624Q354.8156 24.378124 355.22186 24.45625L355.22186 26.128124ZM365.4875 34.284374L357.45624 34.284374Q357.45624 35.284374 357.7531 36.034374Q358.05 36.784374 358.58124 37.26875Q359.09686 37.7375 359.78436 37.971874Q360.4875 38.20625 361.33124 38.20625Q362.4406 38.20625 363.5656 37.76875Q364.6906 37.315624 365.175 36.878124L365.26874 36.878124L365.26874 38.878124Q364.34686 39.26875 363.3781 39.534374Q362.40936 39.8 361.34686 39.8Q358.6281 39.8 357.09686 38.33125Q355.58124 36.8625 355.58124 34.159374Q355.58124 31.4875 357.03436 29.909374Q358.5031 28.33125 360.89374 28.33125Q363.09686 28.33125 364.28436 29.628124Q365.4875 30.909374 365.4875 33.284374L365.4875 34.284374ZM363.70624 32.878124Q363.6906 31.440624 362.97186 30.64375Q362.2531 29.846874 360.78436 29.846874Q359.3156 29.846874 358.4406 30.721874Q357.5656 31.596874 357.45624 32.878124L363.70624 32.878124ZM376.425 38.8625Q375.5031 39.3 374.675 39.55Q373.8625 39.8 372.925 39.8Q371.7531 39.8 370.7531 39.45625Q369.76874 39.096874 369.0656 38.39375Q368.3625 37.690624 367.97186 36.628124Q367.58124 35.55 367.58124 34.1125Q367.58124 31.440624 369.05 29.925Q370.51874 28.39375 372.925 28.39375Q373.8625 28.39375 374.76874 28.659374Q375.675 28.909374 376.425 29.3L376.425 31.33125L376.33124 31.33125Q375.4875 30.675 374.59686 30.33125Q373.70624 29.971874 372.84686 29.971874Q371.28436 29.971874 370.3781 31.034374Q369.4875 32.08125 369.4875 34.1125Q369.4875 36.08125 370.3625 37.14375Q371.2531 38.20625 372.84686 38.20625Q373.40936 38.20625 373.9875 38.065624Q374.5656 37.909374 375.01874 37.675Q375.425 37.471874 375.76874 37.2375Q376.1281 37.003124 376.33124 36.846874L376.425 36.846874L376.425 38.8625ZM384.01874 39.45625Q383.5031 39.596874 382.89374 39.675Q382.28436 39.76875 381.8 39.76875Q380.1281 39.76875 379.2531 38.878124Q378.39374 37.971874 378.39374 35.9875L378.39374 30.190624L377.15936 30.190624L377.15936 28.64375L378.39374 28.64375L378.39374 25.503124L380.2375 25.503124L380.2375 28.64375L384.01874 28.64375L384.01874 30.190624L380.2375 30.190624L380.2375 35.159374Q380.2375 36.01875 380.26874 36.503124Q380.3156 36.9875 380.55 37.39375Q380.7531 37.784374 381.1281 37.971874Q381.51874 38.159374 382.28436 38.159374Q382.7375 38.159374 383.22186 38.034374Q383.70624 37.89375 383.925 37.8L384.01874 37.8L384.01874 39.45625ZM395.4875 34.284374L387.45624 34.284374Q387.45624 35.284374 387.7531 36.034374Q388.05 36.784374 388.58124 37.26875Q389.09686 37.7375 389.78436 37.971874Q390.4875 38.20625 391.33124 38.20625Q392.4406 38.20625 393.5656 37.76875Q394.6906 37.315624 395.175 36.878124L395.26874 36.878124L395.26874 38.878124Q394.34686 39.26875 393.3781 39.534374Q392.40936 39.8 391.34686 39.8Q388.6281 39.8 387.09686 38.33125Q385.58124 36.8625 385.58124 34.159374Q385.58124 31.4875 387.03436 29.909374Q388.5031 28.33125 390.89374 28.33125Q393.09686 28.33125 394.28436 29.628124Q395.4875 30.909374 395.4875 33.284374L395.4875 34.284374ZM393.70624 32.878124Q393.6906 31.440624 392.97186 30.64375Q392.2531 29.846874 390.78436 29.846874Q389.3156 29.846874 388.4406 30.721874Q387.5656 31.596874 387.45624 32.878124L393.70624 32.878124ZM407.20624 39.55L405.3625 39.55L405.3625 38.409374Q404.58124 39.096874 403.72186 39.471874Q402.8625 39.846874 401.84686 39.846874Q399.89374 39.846874 398.7531 38.346874Q397.6125 36.846874 397.6125 34.175Q397.6125 32.784374 398.0031 31.70625Q398.39374 30.628124 399.0656 29.8625Q399.7375 29.1125 400.6125 28.721874Q401.5031 28.33125 402.45624 28.33125Q403.3156 28.33125 403.97186 28.51875Q404.64374 28.70625 405.3625 29.08125L405.3625 24.346874L407.20624 24.346874L407.20624 39.55ZM405.3625 36.8625L405.3625 30.596874Q404.6281 30.26875 404.03436 30.14375Q403.45624 30.01875 402.76874 30.01875Q401.22186 30.01875 400.3625 31.096874Q399.5031 32.159374 399.5031 34.14375Q399.5031 36.08125 400.15936 37.096874Q400.83124 38.096874 402.3 38.096874Q403.08124 38.096874 403.8781 37.753124Q404.675 37.409374 405.3625 36.8625ZM426.95624 34.01875Q426.95624 35.378124 426.5656 36.471874Q426.1906 37.565624 425.53436 38.315624Q424.83124 39.08125 424.0031 39.471874Q423.175 39.846874 422.175 39.846874Q421.2531 39.846874 420.55 39.628124Q419.8625 39.409374 419.1906 39.034374L419.08124 39.55L417.3625 39.55L417.3625 24.346874L419.1906 24.346874L419.1906 29.784374Q419.97186 29.14375 420.83124 28.7375Q421.70624 28.33125 422.78436 28.33125Q424.72186 28.33125 425.83124 29.815624Q426.95624 31.3 426.95624 34.01875ZM425.0656 34.065624Q425.0656 32.1125 424.40936 31.096874Q423.76874 30.08125 422.33124 30.08125Q421.53436 30.08125 420.70624 30.440624Q419.89374 30.784374 419.1906 31.33125L419.1906 37.58125Q419.97186 37.925 420.53436 38.065624Q421.09686 38.20625 421.8156 38.20625Q423.33124 38.20625 424.1906 37.20625Q425.0656 36.20625 425.0656 34.065624ZM438.78436 28.64375L432.425 43.58125L430.45624 43.58125L432.4875 39.01875L428.14374 28.64375L430.14374 28.64375L433.4875 36.721874L436.8625 28.64375L438.78436 28.64375ZM459.59686 39.55L457.20624 39.55L450.3156 26.534374L450.3156 39.55L448.5031 39.55L448.5031 25.003124L451.5031 25.003124L457.78436 36.878124L457.78436 25.003124L459.59686 25.003124L459.59686 39.55ZM471.83124 39.55L470.0031 39.55L470.0031 38.39375Q469.76874 38.55 469.34686 38.846874Q468.9406 39.14375 468.55 39.33125Q468.08124 39.55 467.4875 39.690624Q466.89374 39.846874 466.09686 39.846874Q464.6125 39.846874 463.58124 38.878124Q462.5656 37.89375 462.5656 36.378124Q462.5656 35.14375 463.09686 34.378124Q463.6281 33.6125 464.6125 33.175Q465.6125 32.7375 467.0031 32.58125Q468.40936 32.425 470.0031 32.346874L470.0031 32.065624Q470.0031 31.440624 469.78436 31.034374Q469.5656 30.6125 469.15936 30.378124Q468.76874 30.159374 468.22186 30.08125Q467.675 30.003124 467.08124 30.003124Q466.3625 30.003124 465.47186 30.190624Q464.58124 30.378124 463.6281 30.7375L463.53436 30.7375L463.53436 28.878124Q464.0656 28.721874 465.08124 28.55Q466.09686 28.378124 467.08124 28.378124Q468.2375 28.378124 469.09686 28.565624Q469.95624 28.753124 470.58124 29.221874Q471.1906 29.659374 471.5031 30.378124Q471.83124 31.096874 471.83124 32.14375L471.83124 39.55ZM470.0031 36.8625L470.0031 33.83125Q469.175 33.878124 468.03436 33.971874Q466.89374 34.065624 466.22186 34.253124Q465.4406 34.4875 464.9406 34.95625Q464.45624 35.425 464.45624 36.253124Q464.45624 37.190624 465.01874 37.675Q465.59686 38.14375 466.7531 38.14375Q467.72186 38.14375 468.51874 37.76875Q469.33124 37.39375 470.0031 36.8625ZM481.01874 39.45625Q480.5031 39.596874 479.89374 39.675Q479.28436 39.76875 478.8 39.76875Q477.1281 39.76875 476.2531 38.878124Q475.39374 37.971874 475.39374 35.9875L475.39374 30.190624L474.15936 30.190624L474.15936 28.64375L475.39374 28.64375L475.39374 25.503124L477.2375 25.503124L477.2375 28.64375L481.01874 28.64375L481.01874 30.190624L477.2375 30.190624L477.2375 35.159374Q477.2375 36.01875 477.26874 36.503124Q477.3156 36.9875 477.55 37.39375Q477.7531 37.784374 478.1281 37.971874Q478.51874 38.159374 479.28436 38.159374Q479.7375 38.159374 480.22186 38.034374Q480.70624 37.89375 480.925 37.8L481.01874 37.8L481.01874 39.45625ZM492.39374 39.55L490.5656 39.55L490.5656 38.33125Q489.64374 39.065624 488.78436 39.45625Q487.9406 39.846874 486.90936 39.846874Q485.1906 39.846874 484.2375 38.8Q483.28436 37.753124 483.28436 35.721874L483.28436 28.64375L485.1125 28.64375L485.1125 34.846874Q485.1125 35.675 485.1906 36.26875Q485.26874 36.8625 485.51874 37.284374Q485.78436 37.70625 486.20624 37.909374Q486.6281 38.096874 487.425 38.096874Q488.14374 38.096874 488.9875 37.7375Q489.83124 37.3625 490.5656 36.784374L490.5656 28.64375L492.39374 28.64375L492.39374 39.55ZM503.15936 30.64375L503.0656 30.64375Q502.65936 30.55 502.26874 30.503124Q501.8781 30.45625 501.3625 30.45625Q500.5031 30.45625 499.70624 30.83125Q498.925 31.20625 498.1906 31.8L498.1906 39.55L496.3625 39.55L496.3625 28.64375L498.1906 28.64375L498.1906 30.253124Q499.28436 29.378124 500.1125 29.01875Q500.95624 28.64375 501.83124 28.64375Q502.3 28.64375 502.51874 28.675Q502.7375 28.690624 503.15936 28.753124L503.15936 30.64375ZM513.83124 39.55L512.0031 39.55L512.0031 38.39375Q511.76874 38.55 511.34686 38.846874Q510.9406 39.14375 510.55 39.33125Q510.08124 39.55 509.4875 39.690624Q508.89374 39.846874 508.09686 39.846874Q506.6125 39.846874 505.58124 38.878124Q504.5656 37.89375 504.5656 36.378124Q504.5656 35.14375 505.09686 34.378124Q505.6281 33.6125 506.6125 33.175Q507.6125 32.7375 509.0031 32.58125Q510.40936 32.425 512.0031 32.346874L512.0031 32.065624Q512.0031 31.440624 511.78436 31.034374Q511.5656 30.6125 511.15936 30.378124Q510.76874 30.159374 510.22186 30.08125Q509.675 30.003124 509.08124 30.003124Q508.3625 30.003124 507.47186 30.190624Q506.58124 30.378124 505.6281 30.7375L505.53436 30.7375L505.53436 28.878124Q506.0656 28.721874 507.08124 28.55Q508.09686 28.378124 509.08124 28.378124Q510.2375 28.378124 511.09686 28.565624Q511.95624 28.753124 512.58124 29.221874Q513.1906 29.659374 513.5031 30.378124Q513.83124 31.096874 513.83124 32.14375L513.83124 39.55ZM512.0031 36.8625L512.0031 33.83125Q511.175 33.878124 510.03436 33.971874Q508.89374 34.065624 508.22186 34.253124Q507.4406 34.4875 506.9406 34.95625Q506.45624 35.425 506.45624 36.253124Q506.45624 37.190624 507.01874 37.675Q507.59686 38.14375 508.7531 38.14375Q509.72186 38.14375 510.51874 37.76875Q511.33124 37.39375 512.0031 36.8625ZM519.20624 39.55L517.3781 39.55L517.3781 24.346874L519.20624 24.346874L519.20624 39.55Z" fill-rule="nonzero"/><path fill="#000000" d="M32.784374 58.300003Q32.784374 60.268753 31.925 61.893753Q31.065624 63.503128 29.628124 64.39375Q28.628124 65.00313 27.39375 65.28438Q26.175 65.55 24.175 65.55L20.503124 65.55L20.503124 51.003128L24.14375 51.003128Q26.26875 51.003128 27.51875 51.315628Q28.76875 51.628128 29.64375 52.159378Q31.128124 53.081253 31.95625 54.628128Q32.784374 56.175003 32.784374 58.300003ZM30.76875 58.268753Q30.76875 56.550003 30.175 55.378128Q29.58125 54.206253 28.39375 53.534378Q27.534374 53.050003 26.565624 52.862503Q25.596874 52.675003 24.253124 52.675003L22.440624 52.675003L22.440624 63.893753L24.253124 63.893753Q25.64375 63.893753 26.690624 63.690628Q27.7375 63.471878 28.596874 62.925003Q29.690624 62.221878 30.221874 61.096878Q30.76875 59.956253 30.76875 58.268753ZM37.33125 52.815628L35.253124 52.815628L35.253124 50.909378L37.33125 50.909378L37.33125 52.815628ZM37.20625 65.55L35.378124 65.55L35.378124 54.643753L37.20625 54.643753L37.20625 65.55ZM49.14375 62.409378Q49.14375 63.893753 47.909374 64.8625Q46.675 65.81563 44.534374 65.81563Q43.33125 65.81563 42.315624 65.53438Q41.315624 65.2375 40.628124 64.89375L40.628124 62.831253L40.721874 62.831253Q41.596874 63.487503 42.659374 63.878128Q43.721874 64.25313 44.690624 64.25313Q45.909374 64.25313 46.58125 63.862503Q47.26875 63.471878 47.26875 62.643753Q47.26875 61.987503 46.909374 61.659378Q46.534374 61.331253 45.471874 61.096878Q45.08125 61.003128 44.45625 60.893753Q43.83125 60.768753 43.315624 60.643753Q41.878124 60.253128 41.26875 59.518753Q40.675 58.784378 40.675 57.706253Q40.675 57.034378 40.95625 56.440628Q41.2375 55.846878 41.8 55.378128Q42.346874 54.909378 43.190624 54.643753Q44.034374 54.378128 45.08125 54.378128Q46.05 54.378128 47.05 54.628128Q48.05 54.862503 48.721874 55.190628L48.721874 57.159378L48.628124 57.159378Q47.925 56.643753 46.909374 56.284378Q45.909374 55.925003 44.940624 55.925003Q43.940624 55.925003 43.2375 56.315628Q42.55 56.706253 42.55 57.456253Q42.55 58.143753 42.971874 58.471878Q43.378124 58.815628 44.3 59.034378Q44.8 59.159378 45.425 59.284378Q46.065624 59.393753 46.4875 59.487503Q47.76875 59.784378 48.45625 60.487503Q49.14375 61.206253 49.14375 62.409378ZM59.83125 65.55L58.003124 65.55L58.003124 64.39375Q57.76875 64.55 57.346874 64.84688Q56.940624 65.14375 56.55 65.33125Q56.08125 65.55 55.4875 65.69063Q54.89375 65.84688 54.096874 65.84688Q52.6125 65.84688 51.58125 64.87813Q50.565624 63.893753 50.565624 62.378128Q50.565624 61.143753 51.096874 60.378128Q51.628124 59.612503 52.6125 59.175003Q53.6125 58.737503 55.003124 58.581253Q56.409374 58.425003 58.003124 58.346878L58.003124 58.065628Q58.003124 57.440628 57.784374 57.034378Q57.565624 56.612503 57.159374 56.378128Q56.76875 56.159378 56.221874 56.081253Q55.675 56.003128 55.08125 56.003128Q54.3625 56.003128 53.471874 56.190628Q52.58125 56.378128 51.628124 56.737503L51.534374 56.737503L51.534374 54.878128Q52.065624 54.721878 53.08125 54.550003Q54.096874 54.378128 55.08125 54.378128Q56.2375 54.378128 57.096874 54.565628Q57.95625 54.753128 58.58125 55.221878Q59.190624 55.659378 59.503124 56.378128Q59.83125 57.096878 59.83125 58.143753L59.83125 65.55ZM58.003124 62.862503L58.003124 59.831253Q57.175 59.878128 56.034374 59.971878Q54.89375 60.065628 54.221874 60.253128Q53.440624 60.487503 52.940624 60.956253Q52.45625 61.425003 52.45625 62.253128Q52.45625 63.190628 53.01875 63.675003Q53.596874 64.14375 54.753124 64.14375Q55.721874 64.14375 56.51875 63.768753Q57.33125 63.393753 58.003124 62.862503ZM71.14375 62.409378Q71.14375 63.893753 69.90938 64.8625Q68.675 65.81563 66.53438 65.81563Q65.33125 65.81563 64.31563 65.53438Q63.315624 65.2375 62.628124 64.89375L62.628124 62.831253L62.721874 62.831253Q63.596874 63.487503 64.65938 63.878128Q65.72188 64.25313 66.69063 64.25313Q67.90938 64.25313 68.58125 63.862503Q69.26875 63.471878 69.26875 62.643753Q69.26875 61.987503 68.90938 61.659378Q68.53438 61.331253 67.47188 61.096878Q67.08125 61.003128 66.45625 60.893753Q65.83125 60.768753 65.31563 60.643753Q63.878124 60.253128 63.26875 59.518753Q62.675 58.784378 62.675 57.706253Q62.675 57.034378 62.95625 56.440628Q63.2375 55.846878 63.8 55.378128Q64.34688 54.909378 65.19063 54.643753Q66.03438 54.378128 67.08125 54.378128Q68.05 54.378128 69.05 54.628128Q70.05 54.862503 70.72188 55.190628L70.72188 57.159378L70.62813 57.159378Q69.925 56.643753 68.90938 56.284378Q67.90938 55.925003 66.94063 55.925003Q65.94063 55.925003 65.2375 56.315628Q64.55 56.706253 64.55 57.456253Q64.55 58.143753 64.97188 58.471878Q65.37813 58.815628 66.3 59.034378Q66.8 59.159378 67.425 59.284378Q68.06563 59.393753 68.4875 59.487503Q69.76875 59.784378 70.45625 60.487503Q71.14375 61.206253 71.14375 62.409378ZM79.01875 65.45625Q78.50313 65.59688 77.89375 65.675Q77.28438 65.76875 76.8 65.76875Q75.12813 65.76875 74.25313 64.87813Q73.39375 63.971878 73.39375 61.987503L73.39375 56.190628L72.15938 56.190628L72.15938 54.643753L73.39375 54.643753L73.39375 51.503128L75.2375 51.503128L75.2375 54.643753L79.01875 54.643753L79.01875 56.190628L75.2375 56.190628L75.2375 61.159378Q75.2375 62.018753 75.26875 62.503128Q75.31563 62.987503 75.55 63.393753Q75.75313 63.784378 76.12813 63.971878Q76.51875 64.15938 77.28438 64.15938Q77.7375 64.15938 78.22188 64.03438Q78.70625 63.893753 78.925 63.800003L79.01875 63.800003L79.01875 65.45625ZM90.4875 60.284378L82.45625 60.284378Q82.45625 61.284378 82.75313 62.034378Q83.05 62.784378 83.58125 63.268753Q84.09688 63.737503 84.78438 63.971878Q85.4875 64.20625 86.33125 64.20625Q87.44063 64.20625 88.56563 63.768753Q89.69063 63.315628 90.175 62.878128L90.26875 62.878128L90.26875 64.87813Q89.34688 65.26875 88.37813 65.53438Q87.40938 65.8 86.34688 65.8Q83.62813 65.8 82.09688 64.33125Q80.58125 62.862503 80.58125 60.159378Q80.58125 57.487503 82.03438 55.909378Q83.50313 54.331253 85.89375 54.331253Q88.09688 54.331253 89.28438 55.628128Q90.4875 56.909378 90.4875 59.284378L90.4875 60.284378ZM88.70625 58.878128Q88.69063 57.440628 87.97188 56.643753Q87.25313 55.846878 85.78438 55.846878Q84.31563 55.846878 83.44063 56.721878Q82.56563 57.596878 82.45625 58.878128L88.70625 58.878128ZM100.15938 56.643753L100.06563 56.643753Q99.65938 56.550003 99.26875 56.503128Q98.87813 56.456253 98.3625 56.456253Q97.50313 56.456253 96.70625 56.831253Q95.925 57.206253 95.19063 57.800003L95.19063 65.55L93.3625 65.55L93.3625 54.643753L95.19063 54.643753L95.19063 56.253128Q96.28438 55.378128 97.1125 55.018753Q97.95625 54.643753 98.83125 54.643753Q99.3 54.643753 99.51875 54.675003Q99.7375 54.690628 100.15938 54.753128L100.15938 56.643753ZM110.14375 62.409378Q110.14375 63.893753 108.90938 64.8625Q107.675 65.81563 105.53438 65.81563Q104.33125 65.81563 103.31563 65.53438Q102.31563 65.2375 101.62813 64.89375L101.62813 62.831253L101.72188 62.831253Q102.59688 63.487503 103.65938 63.878128Q104.72188 64.25313 105.69063 64.25313Q106.90938 64.25313 107.58125 63.862503Q108.26875 63.471878 108.26875 62.643753Q108.26875 61.987503 107.90938 61.659378Q107.53438 61.331253 106.47188 61.096878Q106.08125 61.003128 105.45625 60.893753Q104.83125 60.768753 104.31563 60.643753Q102.87813 60.253128 102.26875 59.518753Q101.675 58.784378 101.675 57.706253Q101.675 57.034378 101.95625 56.440628Q102.2375 55.846878 102.8 55.378128Q103.34688 54.909378 104.19063 54.643753Q105.03438 54.378128 106.08125 54.378128Q107.05 54.378128 108.05 54.628128Q109.05 54.862503 109.72188 55.190628L109.72188 57.159378L109.62813 57.159378Q108.925 56.643753 107.90938 56.284378Q106.90938 55.925003 105.94063 55.925003Q104.94063 55.925003 104.2375 56.315628Q103.55 56.706253 103.55 57.456253Q103.55 58.143753 103.97188 58.471878Q104.37813 58.815628 105.3 59.034378Q105.8 59.159378 106.425 59.284378Q107.06563 59.393753 107.4875 59.487503Q108.76875 59.784378 109.45625 60.487503Q110.14375 61.206253 110.14375 62.409378Z" fill-rule="nonzero"/></svg>